<svg width="35" height="36" viewBox="0 0 35 36" fill="none" xmlns="http://www.w3.org/2000/svg">
<circle cx="17.3268" cy="17.9937" r="17.3141" fill="white"/>
<path fill-rule="evenodd" clip-rule="evenodd" d="M17.3268 35.3078C26.8891 35.3078 34.6409 27.556 34.6409 17.9937C34.6409 8.43135 26.8891 0.679565 17.3268 0.679565C7.76448 0.679565 0.0126953 8.43135 0.0126953 17.9937C0.0126953 27.556 7.76448 35.3078 17.3268 35.3078ZM19.8002 16.7901H25.4825C26.4054 16.7901 27.1537 17.5384 27.1537 18.4613C27.1537 19.3843 26.4054 20.1326 25.4825 20.1326H19.8002C19.6157 20.1326 19.466 20.2822 19.466 20.4668V26.149C19.466 27.072 18.7177 27.8203 17.7948 27.8203C16.8718 27.8203 16.1235 27.072 16.1235 26.149V20.4668C16.1235 20.2822 15.9738 20.1326 15.7893 20.1326H10.107C9.18408 20.1326 8.43578 19.3843 8.43578 18.4613C8.43578 17.5384 9.18408 16.7901 10.107 16.7901H15.7893C15.9738 16.7901 16.1235 16.6404 16.1235 16.4558V10.7736C16.1235 9.85065 16.8718 9.10234 17.7948 9.10234C18.7177 9.10234 19.466 9.85065 19.466 10.7736V16.4558C19.466 16.6404 19.6157 16.7901 19.8002 16.7901Z" fill="#1B8036"/>
</svg>
